# Blender v2.93.5 OBJ File: 'raw tile.blend'
# www.blender.org
mtllib raw tile.mtl
o Body001
v 1.000000 0.000000 0.000000
v 0.750000 0.100000 -0.433013
v 1.000000 0.100000 0.000000
v 0.500000 0.000000 -0.866025
v 0.500000 0.100000 -0.866025
v 0.500000 -0.000000 0.866025
v 0.750000 0.100000 0.433013
v 0.500000 0.100000 0.866025
v 0.000000 0.100000 -0.866025
v -0.500000 0.000000 -0.866025
v -0.500000 0.100000 -0.866025
v -1.000000 0.000000 0.000000
v -0.500000 -0.000000 0.866025
v 0.900000 0.100000 0.000000
v 0.850000 0.100000 0.086603
v 0.850000 0.100000 -0.086603
v 0.500000 0.100000 -0.692820
v 0.450000 0.100000 -0.779423
v 0.350000 0.100000 -0.779423
v 0.000000 0.100000 0.866025
v -0.500000 0.100000 0.866025
v 0.450000 0.100000 0.779423
v 0.350000 0.100000 0.779423
v 0.500000 0.100000 0.692820
v -0.750000 0.100000 -0.433013
v -1.000000 0.100000 0.000000
v -0.350000 0.100000 -0.779423
v -0.500000 0.100000 -0.692820
v -0.450000 0.100000 -0.779423
v -0.750000 0.100000 0.433013
v 0.800000 0.100000 0.000000
v 0.850000 0.200000 -0.086603
v 0.500000 0.200000 -0.692820
v 0.400000 0.100000 -0.692820
v -0.500000 0.100000 0.692820
v -0.450000 0.100000 0.779423
v -0.350000 0.100000 0.779423
v 0.400000 0.100000 0.692820
v 0.500000 0.200000 0.692820
v 0.850000 0.200000 0.086603
v -0.850000 0.100000 -0.086603
v -0.900000 0.100000 0.000000
v -0.350000 0.200000 -0.779423
v 0.350000 0.200000 -0.779423
v -0.400000 0.100000 -0.692820
v 0.800000 0.200000 0.000000
v 0.400000 0.200000 -0.692820
v -0.400000 0.200000 0.692820
v -0.350000 0.200000 0.779423
v -0.750000 0.200000 0.000000
v -0.850000 0.200000 -0.086603
v -0.800000 0.200000 0.000000
v -0.850000 0.200000 0.086603
v 0.350000 0.200000 0.779423
v 0.400000 0.200000 0.692820
v -0.375000 0.200000 -0.649519
v -0.500000 0.200000 -0.692820
v -0.400000 0.200000 -0.692820
v 0.375000 0.200000 -0.649519
v -0.400000 0.100000 0.692820
v -0.800000 0.100000 0.000000
v 0.750000 0.170000 0.000000
v 0.375000 0.170000 -0.649519
v -0.375000 0.170000 -0.649519
v 0.000000 0.170000 0.000000
v 0.375000 0.200000 0.649519
v -0.850000 0.100000 0.086603
v -0.500000 0.200000 0.692820
v -0.375000 0.170000 0.649519
v -0.375000 0.200000 0.649519
v -0.750000 0.170000 0.000000
v 0.750000 0.200000 0.000000
v 0.375000 0.170000 0.649519
v 0.000000 0.000000 0.000000
vn 0.0000 1.0000 0.0000
vn 0.8660 -0.0000 -0.5000
vn 0.8660 0.0000 0.5000
vn 0.0000 0.0000 1.0000
vn -0.8660 0.0000 -0.5000
vn 0.0000 0.0000 -1.0000
vn -0.8660 0.0000 0.5000
vn 0.9886 0.0249 -0.1486
vn 0.5524 -0.5715 0.6068
vn -0.9126 -0.4086 -0.0169
vn -0.5212 -0.5399 0.6610
vn 0.9672 0.2283 0.1116
vn 0.6771 0.6235 -0.3909
vn -0.5314 -0.3261 0.7818
vn 0.3995 -0.4787 0.7818
vn 0.9888 0.0000 -0.1490
vn -0.9873 0.0617 -0.1464
vn 0.9437 0.3232 0.0708
vn -0.6234 -0.0083 0.7818
vn 0.0000 -1.0000 -0.0000
usemtl color_cccccc
s off
f 63//1 64//1 65//1
f 62//1 65//1 73//1
f 65//1 64//1 71//1
f 73//1 65//1 69//1
f 69//1 65//1 71//1
f 65//1 62//1 63//1
usemtl Material.001
f 40//2 31//2 46//2
f 70//1 53//1 68//1
f 44//1 56//1 59//1
f 46//3 16//3 32//3
f 47//2 19//2 44//2
f 72//1 33//1 59//1
f 38//4 39//4 55//4
f 24//3 40//3 39//3
f 23//4 49//4 37//4
f 72//1 39//1 40//1
f 51//5 28//5 41//5
f 45//6 57//6 58//6
f 70//1 68//1 48//1
f 70//1 48//1 49//1
f 50//1 51//1 52//1
f 50//1 52//1 53//1
f 50//1 57//1 51//1
f 66//1 54//1 55//1
f 39//1 66//1 55//1
f 58//1 57//1 56//1
f 43//1 58//1 56//1
f 46//1 72//1 40//1
f 32//1 72//1 46//1
f 44//1 59//1 47//1
f 33//1 47//1 59//1
f 33//6 34//6 47//6
f 35//4 48//4 68//4
f 27//6 44//6 19//6
f 33//2 16//2 17//2
f 58//5 27//5 45//5
f 38//3 54//3 23//3
f 41//7 52//7 51//7
f 71//8 56//3 50//9
f 63//10 72//7 59//11
f 50//12 69//2 71//13
f 73//6 70//6 66//6
f 66//5 62//5 73//5
f 60//7 49//7 48//7
f 70//1 54//1 66//1
f 59//14 64//4 63//15
f 67//5 52//5 61//5
f 35//7 53//7 67//7
f 40//2 15//2 31//2
f 70//1 50//1 53//1
f 44//1 43//1 56//1
f 46//3 31//3 16//3
f 47//2 34//2 19//2
f 72//1 32//1 33//1
f 38//4 24//4 39//4
f 24//3 15//3 40//3
f 23//4 54//4 49//4
f 72//1 66//1 39//1
f 51//5 57//5 28//5
f 45//6 28//6 57//6
f 50//1 56//1 57//1
f 33//6 17//6 34//6
f 35//4 60//4 48//4
f 27//6 43//6 44//6
f 33//2 32//2 16//2
f 58//5 43//5 27//5
f 38//3 55//3 54//3
f 41//7 61//7 52//7
f 71//16 64//3 56//3
f 63//17 62//7 72//7
f 50//18 70//2 69//2
f 73//6 69//6 70//6
f 66//5 72//5 62//5
f 60//7 37//7 49//7
f 70//1 49//1 54//1
f 59//19 56//4 64//4
f 67//5 53//5 52//5
f 35//7 68//7 53//7
usemtl Material.002
f 1//2 2//2 3//2
f 2//2 4//2 5//2
f 10//6 9//6 4//6
f 6//3 7//3 8//3
f 7//3 1//3 3//3
f 4//2 2//2 1//2
f 4//6 9//6 5//6
f 9//6 10//6 11//6
f 6//4 20//4 13//4
f 1//20 6//20 74//20
f 1//3 7//3 6//3
f 28//1 25//1 41//1
f 9//1 27//1 19//1
f 34//1 18//1 19//1
f 17//1 5//1 18//1
f 13//4 20//4 21//4
f 20//4 6//4 8//4
f 12//5 25//5 10//5
f 8//1 24//1 22//1
f 23//1 37//1 20//1
f 10//5 25//5 11//5
f 25//5 12//5 26//5
f 13//7 30//7 12//7
f 11//1 27//1 9//1
f 29//1 45//1 27//1
f 12//7 30//7 26//7
f 30//7 13//7 21//7
f 37//1 21//1 20//1
f 42//1 61//1 41//1
f 67//1 26//1 30//1
f 3//1 16//1 14//1
f 15//1 3//1 14//1
f 28//1 11//1 25//1
f 15//1 24//1 7//1
f 30//1 35//1 67//1
f 2//1 17//1 16//1
f 38//1 22//1 24//1
f 8//1 23//1 20//1
f 21//1 35//1 30//1
f 26//1 41//1 25//1
f 60//1 36//1 37//1
f 14//1 31//1 15//1
f 5//1 19//1 18//1
f 4//20 74//20 10//20
f 10//20 74//20 12//20
f 74//20 6//20 13//20
f 74//20 4//20 1//20
f 12//20 74//20 13//20
f 34//1 17//1 18//1
f 17//1 2//1 5//1
f 8//1 7//1 24//1
f 11//1 29//1 27//1
f 29//1 28//1 45//1
f 37//1 36//1 21//1
f 42//1 67//1 61//1
f 67//1 42//1 26//1
f 3//1 2//1 16//1
f 15//1 7//1 3//1
f 28//1 29//1 11//1
f 38//1 23//1 22//1
f 8//1 22//1 23//1
f 21//1 36//1 35//1
f 26//1 42//1 41//1
f 60//1 35//1 36//1
f 14//1 16//1 31//1
f 5//1 9//1 19//1
